<?xml version="1.0" encoding="UTF-8" standalone="no"?>
<!DOCTYPE svg PUBLIC "-//W3C//DTD SVG 1.1//EN"
 "http://www.w3.org/Graphics/SVG/1.1/DTD/svg11.dtd">
<!-- Generated by graphviz version 2.40.1 (20161225.0304)
 -->
<!-- Title: dependencies Pages: 1 -->
<svg width="2892pt" height="284pt"
 viewBox="0.00 0.00 2892.00 284.00" xmlns="http://www.w3.org/2000/svg" xmlns:xlink="http://www.w3.org/1999/xlink">
<g id="graph0" class="graph" transform="scale(1 1) rotate(0) translate(4 280)">
<title>dependencies</title>
<polygon fill="#ffffff" stroke="transparent" points="-4,4 -4,-280 2888,-280 2888,4 -4,4"/>
<text text-anchor="start" x="1421.0091" y="-42.4" font-family="sans-serif" font-weight="bold" font-size="14.00" fill="#000000">Legend</text>
<polygon fill="#ffffb3" stroke="transparent" points="1208,-10 1208,-30 1228,-30 1228,-10 1208,-10"/>
<text text-anchor="start" x="1231.629" y="-15.4" font-family="sans-serif" font-size="14.00" fill="#000000"> &#160;Declarations</text>
<polygon fill="#8dd3c7" stroke="transparent" points="1321,-10 1321,-30 1341,-30 1341,-10 1321,-10"/>
<text text-anchor="start" x="1344.7251" y="-15.4" font-family="sans-serif" font-size="14.00" fill="#000000"> &#160;Module</text>
<polygon fill="#80b1d3" stroke="transparent" points="1407,-10 1407,-30 1427,-30 1427,-10 1407,-10"/>
<text text-anchor="start" x="1430.7812" y="-15.4" font-family="sans-serif" font-size="14.00" fill="#000000"> &#160;Bootstrap</text>
<polygon fill="#fdb462" stroke="transparent" points="1504,-10 1504,-30 1524,-30 1524,-10 1504,-10"/>
<text text-anchor="start" x="1527.6732" y="-15.4" font-family="sans-serif" font-size="14.00" fill="#000000"> &#160;Providers</text>
<polygon fill="#fb8072" stroke="transparent" points="1600,-10 1600,-30 1620,-30 1620,-10 1600,-10"/>
<text text-anchor="start" x="1623.7258" y="-15.4" font-family="sans-serif" font-size="14.00" fill="#000000"> &#160;Exports</text>
<g id="clust1" class="cluster">
<title>cluster_DashboardModule</title>
<polygon fill="none" stroke="#000000" stroke-dasharray="1,5" points="8,-70 8,-268 2876,-268 2876,-70 8,-70"/>
</g>
<g id="clust2" class="cluster">
<title>cluster_DashboardModule_declarations</title>
<polygon fill="none" stroke="#000000" points="969,-78 969,-130 2868,-130 2868,-78 969,-78"/>
</g>
<g id="clust16" class="cluster">
<title>cluster_DashboardModule_imports</title>
<polygon fill="none" stroke="#000000" points="176,-78 176,-130 961,-130 961,-78 176,-78"/>
</g>
<g id="clust17" class="cluster">
<title>cluster_DashboardModule_exports</title>
<polygon fill="none" stroke="#000000" points="1227,-208 1227,-260 1526,-260 1526,-208 1227,-208"/>
</g>
<g id="clust19" class="cluster">
<title>cluster_DashboardModule_providers</title>
<polygon fill="none" stroke="#000000" points="16,-78 16,-130 168,-130 168,-78 16,-78"/>
</g>
<!-- DashboardComponent -->
<g id="node1" class="node">
<title>DashboardComponent</title>
<polygon fill="#ffffb3" stroke="#000000" points="2859.9734,-122 2718.0266,-122 2718.0266,-86 2859.9734,-86 2859.9734,-122"/>
<text text-anchor="middle" x="2789" y="-99.8" font-family="Times,serif" font-size="14.00" fill="#000000">DashboardComponent</text>
</g>
<!-- DashboardModule -->
<g id="node14" class="node">
<title>DashboardModule</title>
<polygon fill="#8dd3c7" stroke="#000000" points="1430.191,-187 1427.191,-191 1406.191,-191 1403.191,-187 1309.809,-187 1309.809,-151 1430.191,-151 1430.191,-187"/>
<text text-anchor="middle" x="1370" y="-164.8" font-family="Times,serif" font-size="14.00" fill="#000000">DashboardModule</text>
</g>
<!-- DashboardComponent&#45;&gt;DashboardModule -->
<g id="edge1" class="edge">
<title>DashboardComponent&#45;&gt;DashboardModule</title>
<path fill="none" stroke="#000000" d="M2789,-122.1532C2789,-145.7566 2789,-184 2789,-184 2789,-184 1440.5187,-184 1440.5187,-184"/>
<polygon fill="#000000" stroke="#000000" points="1440.5188,-180.5001 1430.5187,-184 1440.5187,-187.5001 1440.5188,-180.5001"/>
</g>
<!-- WidgetxComponent -->
<g id="node2" class="node">
<title>WidgetxComponent</title>
<polygon fill="#ffffb3" stroke="#000000" points="2699.5436,-122 2570.4564,-122 2570.4564,-86 2699.5436,-86 2699.5436,-122"/>
<text text-anchor="middle" x="2635" y="-99.8" font-family="Times,serif" font-size="14.00" fill="#000000">WidgetxComponent</text>
</g>
<!-- WidgetxComponent&#45;&gt;DashboardModule -->
<g id="edge2" class="edge">
<title>WidgetxComponent&#45;&gt;DashboardModule</title>
<path fill="none" stroke="#000000" d="M2635,-122.0109C2635,-144.4852 2635,-180 2635,-180 2635,-180 1440.1626,-180 1440.1626,-180"/>
<polygon fill="#000000" stroke="#000000" points="1440.1626,-176.5001 1430.1626,-180 1440.1625,-183.5001 1440.1626,-176.5001"/>
</g>
<!-- ChartComponent -->
<g id="node3" class="node">
<title>ChartComponent</title>
<polygon fill="#ffffb3" stroke="#000000" points="2552.4356,-122 2439.5644,-122 2439.5644,-86 2552.4356,-86 2552.4356,-122"/>
<text text-anchor="middle" x="2496" y="-99.8" font-family="Times,serif" font-size="14.00" fill="#000000">ChartComponent</text>
</g>
<!-- ChartComponent&#45;&gt;DashboardModule -->
<g id="edge3" class="edge">
<title>ChartComponent&#45;&gt;DashboardModule</title>
<path fill="none" stroke="#000000" d="M2496,-122.0449C2496,-143.6623 2496,-177 2496,-177 2496,-177 1440.1406,-177 1440.1406,-177"/>
<polygon fill="#000000" stroke="#000000" points="1440.1406,-173.5001 1430.1406,-177 1440.1405,-180.5001 1440.1406,-173.5001"/>
</g>
<!-- AddwComponent -->
<g id="node4" class="node">
<title>AddwComponent</title>
<polygon fill="#ffffb3" stroke="#000000" points="2421.5465,-122 2306.4535,-122 2306.4535,-86 2421.5465,-86 2421.5465,-122"/>
<text text-anchor="middle" x="2364" y="-99.8" font-family="Times,serif" font-size="14.00" fill="#000000">AddwComponent</text>
</g>
<!-- AddwComponent&#45;&gt;DashboardModule -->
<g id="edge4" class="edge">
<title>AddwComponent&#45;&gt;DashboardModule</title>
<path fill="none" stroke="#000000" d="M2364,-122.1289C2364,-142.5724 2364,-173 2364,-173 2364,-173 1440.3113,-173 1440.3113,-173"/>
<polygon fill="#000000" stroke="#000000" points="1440.3113,-169.5001 1430.3113,-173 1440.3112,-176.5001 1440.3113,-169.5001"/>
</g>
<!-- WidgetViewerComponent -->
<g id="node5" class="node">
<title>WidgetViewerComponent</title>
<polygon fill="#ffffb3" stroke="#000000" points="2287.7366,-122 2124.2634,-122 2124.2634,-86 2287.7366,-86 2287.7366,-122"/>
<text text-anchor="middle" x="2206" y="-99.8" font-family="Times,serif" font-size="14.00" fill="#000000">WidgetViewerComponent</text>
</g>
<!-- WidgetViewerComponent&#45;&gt;DashboardModule -->
<g id="edge5" class="edge">
<title>WidgetViewerComponent&#45;&gt;DashboardModule</title>
<path fill="none" stroke="#000000" d="M2206,-122.1061C2206,-141.3391 2206,-169 2206,-169 2206,-169 1440.1231,-169 1440.1231,-169"/>
<polygon fill="#000000" stroke="#000000" points="1440.1231,-165.5001 1430.1231,-169 1440.123,-172.5001 1440.1231,-165.5001"/>
</g>
<!-- LeafletComponent -->
<g id="node6" class="node">
<title>LeafletComponent</title>
<polygon fill="#ffffb3" stroke="#000000" points="2106.4706,-122 1985.5294,-122 1985.5294,-86 2106.4706,-86 2106.4706,-122"/>
<text text-anchor="middle" x="2046" y="-99.8" font-family="Times,serif" font-size="14.00" fill="#000000">LeafletComponent</text>
</g>
<!-- LeafletComponent&#45;&gt;DashboardModule -->
<g id="edge6" class="edge">
<title>LeafletComponent&#45;&gt;DashboardModule</title>
<path fill="none" stroke="#000000" d="M2046,-122.2667C2046,-140.5552 2046,-166 2046,-166 2046,-166 1440.2876,-166 1440.2876,-166"/>
<polygon fill="#000000" stroke="#000000" points="1440.2877,-162.5001 1430.2876,-166 1440.2876,-169.5001 1440.2877,-162.5001"/>
</g>
<!-- UsageComponent -->
<g id="node7" class="node">
<title>UsageComponent</title>
<polygon fill="#ffffb3" stroke="#000000" points="1967.3132,-122 1850.6868,-122 1850.6868,-86 1967.3132,-86 1967.3132,-122"/>
<text text-anchor="middle" x="1909" y="-99.8" font-family="Times,serif" font-size="14.00" fill="#000000">UsageComponent</text>
</g>
<!-- UsageComponent&#45;&gt;DashboardModule -->
<g id="edge7" class="edge">
<title>UsageComponent&#45;&gt;DashboardModule</title>
<path fill="none" stroke="#000000" d="M1909,-122.0336C1909,-139.0597 1909,-162 1909,-162 1909,-162 1440.2612,-162 1440.2612,-162"/>
<polygon fill="#000000" stroke="#000000" points="1440.2613,-158.5001 1430.2612,-162 1440.2612,-165.5001 1440.2613,-158.5001"/>
</g>
<!-- AcftStatusComponent -->
<g id="node8" class="node">
<title>AcftStatusComponent</title>
<polygon fill="#ffffb3" stroke="#000000" points="1833.4285,-122 1692.5715,-122 1692.5715,-86 1833.4285,-86 1833.4285,-122"/>
<text text-anchor="middle" x="1763" y="-99.8" font-family="Times,serif" font-size="14.00" fill="#000000">AcftStatusComponent</text>
</g>
<!-- AcftStatusComponent&#45;&gt;DashboardModule -->
<g id="edge8" class="edge">
<title>AcftStatusComponent&#45;&gt;DashboardModule</title>
<path fill="none" stroke="#000000" d="M1763,-122.0091C1763,-138.0494 1763,-159 1763,-159 1763,-159 1440.116,-159 1440.116,-159"/>
<polygon fill="#000000" stroke="#000000" points="1440.1161,-155.5001 1430.116,-159 1440.116,-162.5001 1440.1161,-155.5001"/>
</g>
<!-- HistoricalComponent -->
<g id="node9" class="node">
<title>HistoricalComponent</title>
<polygon fill="#ffffb3" stroke="#000000" points="1675.0366,-122 1538.9634,-122 1538.9634,-86 1675.0366,-86 1675.0366,-122"/>
<text text-anchor="middle" x="1607" y="-99.8" font-family="Times,serif" font-size="14.00" fill="#000000">HistoricalComponent</text>
</g>
<!-- HistoricalComponent&#45;&gt;DashboardModule -->
<g id="edge9" class="edge">
<title>HistoricalComponent&#45;&gt;DashboardModule</title>
<path fill="none" stroke="#000000" d="M1607,-122.1243C1607,-136.7832 1607,-155 1607,-155 1607,-155 1440.1115,-155 1440.1115,-155"/>
<polygon fill="#000000" stroke="#000000" points="1440.1115,-151.5001 1430.1115,-155 1440.1114,-158.5001 1440.1115,-151.5001"/>
</g>
<!-- MultiWidgetComponent -->
<g id="node10" class="node">
<title>MultiWidgetComponent</title>
<polygon fill="#ffffb3" stroke="#000000" points="1520.6596,-122 1367.3404,-122 1367.3404,-86 1520.6596,-86 1520.6596,-122"/>
<text text-anchor="middle" x="1444" y="-99.8" font-family="Times,serif" font-size="14.00" fill="#000000">MultiWidgetComponent</text>
</g>
<!-- MultiWidgetComponent&#45;&gt;DashboardModule -->
<g id="edge10" class="edge">
<title>MultiWidgetComponent&#45;&gt;DashboardModule</title>
<path fill="none" stroke="#000000" d="M1398.6329,-122.1061C1398.6329,-122.1061 1398.6329,-140.991 1398.6329,-140.991"/>
<polygon fill="#000000" stroke="#000000" points="1395.133,-140.9909 1398.6329,-150.991 1402.133,-140.991 1395.133,-140.9909"/>
</g>
<!-- TailComponent -->
<g id="node11" class="node">
<title>TailComponent</title>
<polygon fill="#ffffb3" stroke="#000000" points="1348.8809,-122 1245.1191,-122 1245.1191,-86 1348.8809,-86 1348.8809,-122"/>
<text text-anchor="middle" x="1297" y="-99.8" font-family="Times,serif" font-size="14.00" fill="#000000">TailComponent</text>
</g>
<!-- TailComponent&#45;&gt;DashboardModule -->
<g id="edge11" class="edge">
<title>TailComponent&#45;&gt;DashboardModule</title>
<path fill="none" stroke="#000000" d="M1329.4225,-122.1061C1329.4225,-122.1061 1329.4225,-140.991 1329.4225,-140.991"/>
<polygon fill="#000000" stroke="#000000" points="1325.9226,-140.9909 1329.4225,-150.991 1332.9226,-140.991 1325.9226,-140.9909"/>
</g>
<!-- AppComponent -->
<g id="node12" class="node">
<title>AppComponent</title>
<polygon fill="#ffffb3" stroke="#000000" points="1226.9399,-122 1121.0601,-122 1121.0601,-86 1226.9399,-86 1226.9399,-122"/>
<text text-anchor="middle" x="1174" y="-99.8" font-family="Times,serif" font-size="14.00" fill="#000000">AppComponent</text>
</g>
<!-- AppComponent&#45;&gt;DashboardModule -->
<g id="edge12" class="edge">
<title>AppComponent&#45;&gt;DashboardModule</title>
<path fill="none" stroke="#000000" d="M1174,-122.1243C1174,-136.7832 1174,-155 1174,-155 1174,-155 1299.8615,-155 1299.8615,-155"/>
<polygon fill="#000000" stroke="#000000" points="1299.8616,-158.5001 1309.8615,-155 1299.8615,-151.5001 1299.8616,-158.5001"/>
</g>
<!-- OptionsComponent -->
<g id="node13" class="node">
<title>OptionsComponent</title>
<polygon fill="#ffffb3" stroke="#000000" points="1102.6652,-122 977.3348,-122 977.3348,-86 1102.6652,-86 1102.6652,-122"/>
<text text-anchor="middle" x="1040" y="-99.8" font-family="Times,serif" font-size="14.00" fill="#000000">OptionsComponent</text>
</g>
<!-- OptionsComponent&#45;&gt;DashboardModule -->
<g id="edge13" class="edge">
<title>OptionsComponent&#45;&gt;DashboardModule</title>
<path fill="none" stroke="#000000" d="M1040,-122.0091C1040,-138.0494 1040,-159 1040,-159 1040,-159 1299.8566,-159 1299.8566,-159"/>
<polygon fill="#000000" stroke="#000000" points="1299.8567,-162.5001 1309.8566,-159 1299.8566,-155.5001 1299.8567,-162.5001"/>
</g>
<!-- DashboardComponent  -->
<g id="node21" class="node">
<title>DashboardComponent </title>
<polygon fill="#fb8072" stroke="#000000" points="1517.9742,-252 1372.0258,-252 1372.0258,-216 1517.9742,-216 1517.9742,-252"/>
<text text-anchor="middle" x="1445" y="-229.8" font-family="Times,serif" font-size="14.00" fill="#000000">DashboardComponent </text>
</g>
<!-- DashboardModule&#45;&gt;DashboardComponent  -->
<g id="edge20" class="edge">
<title>DashboardModule&#45;&gt;DashboardComponent </title>
<path fill="none" stroke="#000000" stroke-dasharray="5,2" d="M1401.1793,-187.1061C1401.1793,-187.1061 1401.1793,-205.991 1401.1793,-205.991"/>
<polygon fill="#000000" stroke="#000000" points="1397.6794,-205.9909 1401.1793,-215.991 1404.6794,-205.991 1397.6794,-205.9909"/>
</g>
<!-- AddwComponent  -->
<g id="node22" class="node">
<title>AddwComponent </title>
<polygon fill="#fb8072" stroke="#000000" points="1354.5456,-252 1235.4544,-252 1235.4544,-216 1354.5456,-216 1354.5456,-252"/>
<text text-anchor="middle" x="1295" y="-229.8" font-family="Times,serif" font-size="14.00" fill="#000000">AddwComponent </text>
</g>
<!-- DashboardModule&#45;&gt;AddwComponent  -->
<g id="edge21" class="edge">
<title>DashboardModule&#45;&gt;AddwComponent </title>
<path fill="none" stroke="#000000" stroke-dasharray="5,2" d="M1332.2137,-187.1061C1332.2137,-187.1061 1332.2137,-205.991 1332.2137,-205.991"/>
<polygon fill="#000000" stroke="#000000" points="1328.7138,-205.9909 1332.2137,-215.991 1335.7138,-205.991 1328.7138,-205.9909"/>
</g>
<!-- CommonModule -->
<g id="node15" class="node">
<title>CommonModule</title>
<polygon fill="#8dd3c7" stroke="#000000" points="952.6681,-122 949.6681,-126 928.6681,-126 925.6681,-122 841.3319,-122 841.3319,-86 952.6681,-86 952.6681,-122"/>
<text text-anchor="middle" x="897" y="-99.8" font-family="Times,serif" font-size="14.00" fill="#000000">CommonModule</text>
</g>
<!-- CommonModule&#45;&gt;DashboardModule -->
<g id="edge14" class="edge">
<title>CommonModule&#45;&gt;DashboardModule</title>
<path fill="none" stroke="#000000" d="M897,-122.0336C897,-139.0597 897,-162 897,-162 897,-162 1299.6138,-162 1299.6138,-162"/>
<polygon fill="#000000" stroke="#000000" points="1299.6138,-165.5001 1309.6138,-162 1299.6137,-158.5001 1299.6138,-165.5001"/>
</g>
<!-- FlexLayoutModule -->
<g id="node16" class="node">
<title>FlexLayoutModule</title>
<polygon fill="#8dd3c7" stroke="#000000" points="823.0954,-122 820.0954,-126 799.0954,-126 796.0954,-122 698.9046,-122 698.9046,-86 823.0954,-86 823.0954,-122"/>
<text text-anchor="middle" x="761" y="-99.8" font-family="Times,serif" font-size="14.00" fill="#000000">FlexLayoutModule</text>
</g>
<!-- FlexLayoutModule&#45;&gt;DashboardModule -->
<g id="edge15" class="edge">
<title>FlexLayoutModule&#45;&gt;DashboardModule</title>
<path fill="none" stroke="#000000" d="M761,-122.2667C761,-140.5552 761,-166 761,-166 761,-166 1299.6604,-166 1299.6604,-166"/>
<polygon fill="#000000" stroke="#000000" points="1299.6605,-169.5001 1309.6604,-166 1299.6604,-162.5001 1299.6605,-169.5001"/>
</g>
<!-- GridsterModule -->
<g id="node17" class="node">
<title>GridsterModule</title>
<polygon fill="#8dd3c7" stroke="#000000" points="680.9188,-122 677.9188,-126 656.9188,-126 653.9188,-122 575.0812,-122 575.0812,-86 680.9188,-86 680.9188,-122"/>
<text text-anchor="middle" x="628" y="-99.8" font-family="Times,serif" font-size="14.00" fill="#000000">GridsterModule</text>
</g>
<!-- GridsterModule&#45;&gt;DashboardModule -->
<g id="edge16" class="edge">
<title>GridsterModule&#45;&gt;DashboardModule</title>
<path fill="none" stroke="#000000" d="M628,-122.1061C628,-141.3391 628,-169 628,-169 628,-169 1299.5936,-169 1299.5936,-169"/>
<polygon fill="#000000" stroke="#000000" points="1299.5937,-172.5001 1309.5936,-169 1299.5936,-165.5001 1299.5937,-172.5001"/>
</g>
<!-- FormsModule -->
<g id="node18" class="node">
<title>FormsModule</title>
<polygon fill="#8dd3c7" stroke="#000000" points="557.8288,-122 554.8288,-126 533.8288,-126 530.8288,-122 462.1712,-122 462.1712,-86 557.8288,-86 557.8288,-122"/>
<text text-anchor="middle" x="510" y="-99.8" font-family="Times,serif" font-size="14.00" fill="#000000">FormsModule</text>
</g>
<!-- FormsModule&#45;&gt;DashboardModule -->
<g id="edge17" class="edge">
<title>FormsModule&#45;&gt;DashboardModule</title>
<path fill="none" stroke="#000000" d="M510,-122.1289C510,-142.5724 510,-173 510,-173 510,-173 1299.8683,-173 1299.8683,-173"/>
<polygon fill="#000000" stroke="#000000" points="1299.8683,-176.5001 1309.8683,-173 1299.8682,-169.5001 1299.8683,-176.5001"/>
</g>
<!-- ReactiveFormsModule -->
<g id="node19" class="node">
<title>ReactiveFormsModule</title>
<polygon fill="#8dd3c7" stroke="#000000" points="444.3047,-122 441.3047,-126 420.3047,-126 417.3047,-122 299.6953,-122 299.6953,-86 444.3047,-86 444.3047,-122"/>
<text text-anchor="middle" x="372" y="-99.8" font-family="Times,serif" font-size="14.00" fill="#000000">ReactiveFormsModule</text>
</g>
<!-- ReactiveFormsModule&#45;&gt;DashboardModule -->
<g id="edge18" class="edge">
<title>ReactiveFormsModule&#45;&gt;DashboardModule</title>
<path fill="none" stroke="#000000" d="M372,-122.0449C372,-143.6623 372,-177 372,-177 372,-177 1299.8181,-177 1299.8181,-177"/>
<polygon fill="#000000" stroke="#000000" points="1299.8182,-180.5001 1309.8181,-177 1299.8181,-173.5001 1299.8182,-180.5001"/>
</g>
<!-- RouterModule -->
<g id="node20" class="node">
<title>RouterModule</title>
<polygon fill="#8dd3c7" stroke="#000000" points="281.6528,-122 278.6528,-126 257.6528,-126 254.6528,-122 184.3472,-122 184.3472,-86 281.6528,-86 281.6528,-122"/>
<text text-anchor="middle" x="233" y="-99.8" font-family="Times,serif" font-size="14.00" fill="#000000">RouterModule</text>
</g>
<!-- RouterModule&#45;&gt;DashboardModule -->
<g id="edge19" class="edge">
<title>RouterModule&#45;&gt;DashboardModule</title>
<path fill="none" stroke="#000000" d="M233,-122.0109C233,-144.4852 233,-180 233,-180 233,-180 1299.6727,-180 1299.6727,-180"/>
<polygon fill="#000000" stroke="#000000" points="1299.6727,-183.5001 1309.6727,-180 1299.6727,-176.5001 1299.6727,-183.5001"/>
</g>
<!-- WidgetService -->
<g id="node23" class="node">
<title>WidgetService</title>
<ellipse fill="#fdb462" stroke="#000000" cx="92" cy="-104" rx="68.3362" ry="18"/>
<text text-anchor="middle" x="92" y="-99.8" font-family="Times,serif" font-size="14.00" fill="#000000">WidgetService</text>
</g>
<!-- WidgetService&#45;&gt;DashboardModule -->
<g id="edge22" class="edge">
<title>WidgetService&#45;&gt;DashboardModule</title>
<path fill="none" stroke="#000000" d="M92,-122.1532C92,-145.7566 92,-184 92,-184 92,-184 1299.647,-184 1299.647,-184"/>
<polygon fill="#000000" stroke="#000000" points="1299.6471,-187.5001 1309.647,-184 1299.647,-180.5001 1299.6471,-187.5001"/>
</g>
</g>
</svg>
