<?xml version="1.0" encoding="utf-8"?>
<!-- Generator: Adobe Illustrator 18.1.1, SVG Export Plug-In . SVG Version: 6.00 Build 0)  -->
<svg version="1.1" id="Layer_1" xmlns="http://www.w3.org/2000/svg" xmlns:xlink="http://www.w3.org/1999/xlink" x="0px" y="0px"
	 viewBox="0 676 627 116" enable-background="new 0 676 627 116" xml:space="preserve">
<path fill="#FCFCFC" d="M397.4,791.1v-58.8h19.4c5.8,0,10.4,0.6,14,1.9c3.5,1.3,6.6,3.5,9.2,6.6c4.1,5,6.1,11.4,6.1,19.4
	c0,9.8-2.6,17.4-7.7,22.7c-5.1,5.3-12.3,8-21.6,8h-19.4V791.1z M405.7,784.8h10.5c7.6,0,12.9-2,16.1-6.1c3.4-4.4,5.1-10.2,5.1-17.6
	c0-6.9-1.7-12.3-5-16.3c-2-2.4-4.4-4-7.2-5c-2.8-0.8-7-1.3-12.7-1.3h-6.9V784.8L405.7,784.8z"/>
<path fill="#FCFCFC" d="M453.1,740.1v-7.8h7.8v7.8H453.1z M453.1,791.1v-43.2h7.8v43.2H453.1L453.1,791.1z"/>
<path fill="#FCFCFC" d="M471.6,791.1v-43.2h7.8v8c3.1-6,7.6-9.1,13.4-9.1c0.8,0,1.7,0.1,2.5,0.2v7.3c-1.3-0.5-2.5-0.7-3.5-0.7
	c-4.8,0-9,3-12.3,8.9v28.4L471.6,791.1L471.6,791.1z"/>
<path fill="#FCFCFC" d="M531.1,789.6c-5.2,1.5-9.6,2.4-13.4,2.4c-6.3,0-11.5-2.1-15.4-6.4c-4-4.3-5.9-9.7-5.9-16.4
	c0-6.5,1.8-11.9,5.2-16.1c3.5-4.1,7.9-6.3,13.5-6.3c5.2,0,9.1,1.9,11.9,5.6c2.8,3.7,4.3,9,4.3,15.8v2.4h-27
	c1.2,10.3,6.1,15.4,14.9,15.4c3.2,0,7.2-0.8,11.8-2.6L531.1,789.6L531.1,789.6z M504.6,764.8h18.8c0-8-3-12.1-8.9-12.1
	S505.3,756.8,504.6,764.8z"/>
<path fill="#FCFCFC" d="M556.4,792c-5.8,0-10.5-2.1-14.3-6.5c-3.8-4.3-5.7-9.7-5.7-16.3c0-7,1.9-12.5,5.7-16.4
	c3.8-3.9,9-5.9,15.7-5.9c3.3,0,7.1,0.5,11.1,1.4v6.5c-4.4-1.3-7.9-1.9-10.6-1.9c-3.9,0-7.1,1.5-9.6,4.5c-2.4,3-3.5,7-3.5,12.1
	c0,4.8,1.2,8.7,3.7,11.7c2.5,3,5.7,4.5,9.7,4.5c3.5,0,7.2-0.9,10.9-2.7v6.7C564.4,791.3,560,792,556.4,792z"/>
<path fill="#FCFCFC" d="M589,792c-3.9,0-7-1.2-9.2-3.4s-3.3-5.4-3.3-9.5v-25.3h-5.3v-5.9h5.3v-7.8l7.8-0.7v8.5h11.1v5.9h-11.1v23.9
	c0,5.7,2.4,8.4,7.2,8.4c1.1,0,2.2-0.1,3.8-0.5v5.4C592.8,791.6,590.8,792,589,792z"/>
<path fill="#FCFCFC" d="M302.6,761.7c0,8.4,0,16.7,0,25.1c0,1.9-0.5,2.4-2.4,2.4c-9.9,0-19.9,0-29.8,0c-0.9,0-2-0.5-2.6-1.1
	c-5-5.2-9.8-10.5-14.7-15.7c-4.6-5-9.3-9.9-14-14.8c-0.5-0.6-1.1-1.2-1.5-1.8c-0.2-0.2-0.5-0.4-0.7-0.5c-0.1,0.4-0.4,0.6-0.5,0.9
	c-0.1,0.2,0,0.5,0,0.7c0,9.8,0,19.6,0,29.4c0,2.5-0.2,2.7-2.6,2.7c-5.1,0-10.3,0-15.4,0c-3.1,0-3.2-0.1-3.2-3.2
	c0-12.5,0.1-25.1,0.1-37.7c0-3.8,0-7.6,0-11.2c0-1.9,0.4-2.2,2.1-2.2c9.6,0,19.2,0,28.7,0c1.2,0,2.1,0.5,3,1.3
	c5,5.2,9.8,10.4,14.8,15.6c4.5,4.6,9,9.2,13.5,14c1.1,1.2,2.1,2.4,3.2,3.5c0.2,0.2,0.7,0.6,0.8,0.5c0.2-0.2,0.5-0.6,0.6-0.9
	c0-0.1,0-0.2,0-0.4c0-9.6,0.1-19.3,0.1-28.9c0-0.8,0-1.8,0-2.6c0-1.4,0.6-2.4,2-2.4c5.4,0,10.9,0,16.3,0c1.5,0,2.1,0.7,2.1,2.2
	c0,8.4,0,16.9,0,25.3C302.6,761.7,302.6,761.7,302.6,761.7z"/>
<path fill="#FCFCFC" d="M165.3,773.8c1.8,1.7,3.4,3.1,5.1,4.5c3.4,3.1,6.7,6,10.2,9.1c0.4,0.2,0.5,0.7,0.6,1.1
	c-0.5,0.2-0.8,0.6-1.3,0.6c-2.1,0-4.4,0-6.5,0c-5,0-9.9-0.1-15,0c-1.9,0-3.3-0.5-4.7-1.7c-4.7-4.1-9.5-8.2-14.3-12.2
	c-0.7-0.6-1.7-0.9-2.6-0.9c-3.9-0.1-7.7-0.1-11.6,0c-1.8,0-2,0.4-2,2.1c0,3.4,0,7,0,10.4c0,1.8-0.4,2.1-2.1,2.1
	c-5.8,0-11.6,0-17.4,0c-1.3,0-1.9-0.6-2-1.9c0-0.7,0-1.4,0-2.2c0-16.1,0-32.2,0-48.2c0-1.9,0.5-2.5,2.1-2.5c17.3,0,34.4,0,51.7,0
	c5.3,0,10.8,0.2,16.1,0.4c3.7,0,6,2,7.7,5.1c3.3,6,3.9,12.5,3,19.3c-0.4,2.1-0.5,4.1-1.5,6c-1.3,2.5-3.2,4.4-5.6,5.7
	c-2.6,1.4-5.4,2.4-8.4,2.5c-0.2,0-0.5,0.1-0.7,0.1C165.8,773.3,165.7,773.4,165.3,773.8z M141.1,749.3L141.1,749.3
	c-4.3,0-8.6,0-12.9,0c-1.2,0-2.2,0-3.4,0c-0.7,0-1.3,0.4-1.3,1.2c0,3,0,5.9,0,8.7c0,1.1,0.6,1.5,1.7,1.7c0.9,0,1.8,0,2.7,0
	c9.5,0,18.9,0,28.4,0c1.4,0,2.6-0.6,3.3-1.8c1.2-1.9,1.4-4,0.8-6.1c-0.9-3.4-1.1-3.9-4.5-3.9C150.9,749.3,146,749.3,141.1,749.3z"/>
<path fill="#FCFCFC" d="M346.5,733.4c7,0,14,0,20.9,0c4,0,8,0.5,11.9,1.8c4.4,1.5,8.2,3.8,10.2,8.3c0.4,0.7,0.5,1.5,0.5,2.2
	c0.2,3,0.4,5.9,0.5,8.9c0.1,1.3-0.5,1.8-1.8,1.9c-3.9,0-7.7,0.1-11.6,0.1c-1.8,0-3.4,0.1-5.2,0.2c-1.1,0-1.8-0.4-1.9-1.4
	c-0.5-3.1-2.6-5.2-5.8-5.6c-1.7-0.2-3.3-0.1-4.8-0.2c-7-0.1-14-0.2-20.9-0.4c-1.2,0-2.5,0-3.7,0.2c-1.9,0.2-3.2,1.5-3.4,3.4
	c-0.4,3.4-0.6,6.9-0.7,10.3c0,2,0,4.1,0.5,6.1c0.6,2.4,2.8,3.8,5.3,3.9c3.7,0.1,7.2,0.1,10.9,0.2c5.9,0.1,11.7,0.1,17.6,0.1
	c3.1,0,4.6-1.4,5.2-4.5c0.2-1.1,0.8-1.5,1.9-1.5c2.8,0,5.7,0,8.4,0s5.4,0.1,8.2,0.1c2.1,0,2.7,0.5,2.7,2.6c0,2.6,0,5.1-0.1,7.7
	c-0.2,5.4-4.1,9.7-9.1,11.6c-4.5,1.7-9.1,1.8-13.8,1.8c-12.3-0.1-24.6-0.2-36.9-0.2c-5.6,0-10.5-1.8-15.1-4.6
	c-2.8-1.9-4.8-4.6-6.1-7.8c-1.1-2.6-1.3-5.2-1.3-7.9c0-7.6,0.1-15.1,0.2-22.7c0-4.7,2.4-7.9,6.1-10.3c5.1-3.2,10.6-4.3,16.4-4.3
	c4.8,0,9.8,0,14.7,0C346.5,733.2,346.5,733.4,346.5,733.4z"/>
<path fill="#FCFCFC" d="M86.4,789c-3,0-5.9-0.1-8.9,0c-2.1,0.1-3.2-0.9-4-2.6c-0.8-1.7-1.8-3.3-2.8-4.8c-0.2-0.4-0.7-0.6-1.1-0.7
	c-0.6-0.1-1.3-0.1-1.9-0.1c-11,0-21.9,0-32.9,0c-1.1,0-1.8,0.5-2.4,1.3c-1.1,1.5-2.1,3.2-3.1,4.8c-0.8,1.3-1.7,2-3.3,2
	c-6.4-0.1-12.8,0-19,0c-0.4,0-0.7,0.1-1.1,0c-0.6-0.1-1.2-0.4-1.8-0.6c0.2-0.5,0.6-0.8,0.8-1.3c1.1-1.7,2.1-3.3,3.2-5.1
	c2.5-4,5-8,7.4-12.1c1.9-3.1,3.8-6.3,5.7-9.3c2-3.3,4-6.6,6-9.9c1.9-3.2,3.8-6.4,5.8-9.6c1.2-2,2.4-4,3.8-5.8
	c0.5-0.6,1.7-0.9,2.5-0.9c7.1-0.1,14.3,0,21.4,0c0.8,0,1.5,0.1,2.4,0c1.7-0.2,2.8,0.5,3.5,1.9c1.9,3.3,3.8,6.5,5.8,9.7
	c1.9,3.2,3.9,6.3,5.8,9.5c1.5,2.5,3,5.1,4.5,7.6c1.9,3.2,3.8,6.3,5.8,9.5c1.5,2.6,3.1,5.1,4.6,7.7c1.4,2.4,2.8,4.6,4.3,7
	c0.7,1.3,0.5,1.8-1.1,1.8C93.1,789,89.8,789,86.4,789z M52.2,766.7L52.2,766.7c2.4,0,4.6,0,7,0c0.5,0,1.1-0.2,1.3-0.5
	c0.1-0.4-0.1-0.9-0.4-1.3c-2.4-3.9-4.8-7.8-7.2-11.7c-0.8-1.3-1.2-1.4-2-0.1c-1.2,1.9-2.1,3.9-3.3,5.8c-1.2,2-2.2,4-3.4,6
	c-0.2,0.4-0.5,0.9-0.4,1.3c0.1,0.2,0.7,0.5,1.2,0.5C47.5,766.7,49.8,766.7,52.2,766.7z"/>
<path fill="#FCFCFC" d="M186.6,761.8c0-8.5,0-16.9,0-25.4c0-1.8,0.5-2.2,2.1-2.2c5.9,0,11.7,0,17.6,0c1.4,0,2.2,0.7,2.2,2.1
	c0,16.9,0,33.7,0,50.6c0,1.7-0.5,2.1-2.1,2.1c-5.9,0-11.8,0-17.7,0c-1.9,0-2.1-0.2-2.1-2.1C186.6,778.5,186.6,770.2,186.6,761.8
	L186.6,761.8z"/>
<polygon fill="#FCFCFC" points="197.8,712.5 237.5,712.5 252,680.7 212.9,680.7 "/>
<polygon fill="#FCFCFC" points="258,712.5 297.7,712.5 312.3,680.7 273.1,680.7 "/>
<polygon fill="#FCFCFC" points="318.1,712.5 357.9,712.5 372.5,680.7 333.3,680.7 "/>
<g>
	<path fill="#FCFCFC" d="M597.6,739.9c0.8,0.5,2,0.9,3.3,0.9c1.9,0,3-1,3-2.5c0-1.3-0.8-2.1-2.7-2.9c-2.3-0.8-3.8-2-3.8-4.1
		c0-2.2,1.9-3.9,4.6-3.9c1.5,0,2.5,0.3,3.2,0.7l-0.5,1.5c-0.5-0.3-1.4-0.7-2.7-0.7c-2,0-2.7,1.2-2.7,2.2c0,1.3,0.9,2,2.9,2.8
		c2.4,0.9,3.7,2.1,3.7,4.2c0,2.2-1.6,4.1-5,4.1c-1.4,0-2.9-0.4-3.7-0.9L597.6,739.9z"/>
	<path fill="#FCFCFC" d="M620.5,735.9c-0.1-2-0.2-4.4-0.2-6.2h-0.1c-0.5,1.7-1.1,3.5-1.8,5.5l-2.5,7h-1.4l-2.3-6.8
		c-0.7-2-1.3-3.9-1.7-5.6h0c0,1.8-0.1,4.2-0.3,6.4l-0.4,6.2H608l1-14.4h2.4l2.5,6.9c0.6,1.8,1.1,3.3,1.4,4.8h0.1
		c0.4-1.4,0.9-3,1.5-4.8l2.6-6.9h2.4l0.9,14.4h-1.8L620.5,735.9z"/>
</g>
</svg>
