<?xml version="1.0" encoding="UTF-8" standalone="no"?>
<!DOCTYPE svg PUBLIC "-//W3C//DTD SVG 1.1//EN"
 "http://www.w3.org/Graphics/SVG/1.1/DTD/svg11.dtd">
<!-- Generated by graphviz version 2.40.1 (20161225.0304)
 -->
<!-- Title: dependencies Pages: 1 -->
<svg width="1328pt" height="284pt"
 viewBox="0.00 0.00 1328.00 284.00" xmlns="http://www.w3.org/2000/svg" xmlns:xlink="http://www.w3.org/1999/xlink">
<g id="graph0" class="graph" transform="scale(1 1) rotate(0) translate(4 280)">
<title>dependencies</title>
<polygon fill="#ffffff" stroke="transparent" points="-4,4 -4,-280 1324,-280 1324,4 -4,4"/>
<text text-anchor="start" x="639.0091" y="-42.4" font-family="sans-serif" font-weight="bold" font-size="14.00" fill="#000000">Legend</text>
<polygon fill="#ffffb3" stroke="transparent" points="426,-10 426,-30 446,-30 446,-10 426,-10"/>
<text text-anchor="start" x="449.629" y="-15.4" font-family="sans-serif" font-size="14.00" fill="#000000"> &#160;Declarations</text>
<polygon fill="#8dd3c7" stroke="transparent" points="539,-10 539,-30 559,-30 559,-10 539,-10"/>
<text text-anchor="start" x="562.7251" y="-15.4" font-family="sans-serif" font-size="14.00" fill="#000000"> &#160;Module</text>
<polygon fill="#80b1d3" stroke="transparent" points="625,-10 625,-30 645,-30 645,-10 625,-10"/>
<text text-anchor="start" x="648.7812" y="-15.4" font-family="sans-serif" font-size="14.00" fill="#000000"> &#160;Bootstrap</text>
<polygon fill="#fdb462" stroke="transparent" points="722,-10 722,-30 742,-30 742,-10 722,-10"/>
<text text-anchor="start" x="745.6732" y="-15.4" font-family="sans-serif" font-size="14.00" fill="#000000"> &#160;Providers</text>
<polygon fill="#fb8072" stroke="transparent" points="818,-10 818,-30 838,-30 838,-10 818,-10"/>
<text text-anchor="start" x="841.7258" y="-15.4" font-family="sans-serif" font-size="14.00" fill="#000000"> &#160;Exports</text>
<g id="clust1" class="cluster">
<title>cluster_SBBUsageModule</title>
<polygon fill="none" stroke="#000000" stroke-dasharray="1,5" points="8,-70 8,-268 1312,-268 1312,-70 8,-70"/>
</g>
<g id="clust2" class="cluster">
<title>cluster_SBBUsageModule_declarations</title>
<polygon fill="none" stroke="#000000" points="482,-78 482,-130 1304,-130 1304,-78 482,-78"/>
</g>
<g id="clust8" class="cluster">
<title>cluster_SBBUsageModule_imports</title>
<polygon fill="none" stroke="#000000" points="204,-78 204,-130 474,-130 474,-78 204,-78"/>
</g>
<g id="clust9" class="cluster">
<title>cluster_SBBUsageModule_exports</title>
<polygon fill="none" stroke="#000000" points="308,-208 308,-260 980,-260 980,-208 308,-208"/>
</g>
<g id="clust11" class="cluster">
<title>cluster_SBBUsageModule_providers</title>
<polygon fill="none" stroke="#000000" points="16,-78 16,-130 196,-130 196,-78 16,-78"/>
</g>
<!-- BulletChartComponent -->
<g id="node1" class="node">
<title>BulletChartComponent</title>
<polygon fill="#ffffb3" stroke="#000000" points="1296.1582,-122 1149.8418,-122 1149.8418,-86 1296.1582,-86 1296.1582,-122"/>
<text text-anchor="middle" x="1223" y="-99.8" font-family="Times,serif" font-size="14.00" fill="#000000">BulletChartComponent</text>
</g>
<!-- SBBUsageModule -->
<g id="node6" class="node">
<title>SBBUsageModule</title>
<polygon fill="#8dd3c7" stroke="#000000" points="698.486,-187 695.486,-191 674.486,-191 671.486,-187 577.514,-187 577.514,-151 698.486,-151 698.486,-187"/>
<text text-anchor="middle" x="638" y="-164.8" font-family="Times,serif" font-size="14.00" fill="#000000">SBBUsageModule</text>
</g>
<!-- BulletChartComponent&#45;&gt;SBBUsageModule -->
<g id="edge1" class="edge">
<title>BulletChartComponent&#45;&gt;SBBUsageModule</title>
<path fill="none" stroke="#000000" d="M1223,-122.1289C1223,-142.5724 1223,-173 1223,-173 1223,-173 708.6756,-173 708.6756,-173"/>
<polygon fill="#000000" stroke="#000000" points="708.6756,-169.5001 698.6756,-173 708.6755,-176.5001 708.6756,-169.5001"/>
</g>
<!-- PlanAppUsageComponent -->
<g id="node2" class="node">
<title>PlanAppUsageComponent</title>
<polygon fill="#ffffb3" stroke="#000000" points="1131.8075,-122 966.1925,-122 966.1925,-86 1131.8075,-86 1131.8075,-122"/>
<text text-anchor="middle" x="1049" y="-99.8" font-family="Times,serif" font-size="14.00" fill="#000000">PlanAppUsageComponent</text>
</g>
<!-- PlanAppUsageComponent&#45;&gt;SBBUsageModule -->
<g id="edge2" class="edge">
<title>PlanAppUsageComponent&#45;&gt;SBBUsageModule</title>
<path fill="none" stroke="#000000" d="M1052.002,-122.2667C1052.002,-140.5552 1052.002,-166 1052.002,-166 1052.002,-166 708.6428,-166 708.6428,-166"/>
<polygon fill="#000000" stroke="#000000" points="708.6428,-162.5001 698.6428,-166 708.6428,-169.5001 708.6428,-162.5001"/>
</g>
<!-- PlanUsageComponent -->
<g id="node3" class="node">
<title>PlanUsageComponent</title>
<polygon fill="#ffffb3" stroke="#000000" points="948.7007,-122 807.2993,-122 807.2993,-86 948.7007,-86 948.7007,-122"/>
<text text-anchor="middle" x="878" y="-99.8" font-family="Times,serif" font-size="14.00" fill="#000000">PlanUsageComponent</text>
</g>
<!-- PlanUsageComponent&#45;&gt;SBBUsageModule -->
<g id="edge3" class="edge">
<title>PlanUsageComponent&#45;&gt;SBBUsageModule</title>
<path fill="none" stroke="#000000" d="M818.5267,-122.0091C818.5267,-138.0494 818.5267,-159 818.5267,-159 818.5267,-159 708.615,-159 708.615,-159"/>
<polygon fill="#000000" stroke="#000000" points="708.615,-155.5001 698.615,-159 708.6149,-162.5001 708.615,-155.5001"/>
</g>
<!-- SBBUsageComponent -->
<g id="node4" class="node">
<title>SBBUsageComponent</title>
<polygon fill="#ffffb3" stroke="#000000" points="789.2688,-122 646.7312,-122 646.7312,-86 789.2688,-86 789.2688,-122"/>
<text text-anchor="middle" x="718" y="-99.8" font-family="Times,serif" font-size="14.00" fill="#000000">SBBUsageComponent</text>
</g>
<!-- SBBUsageComponent&#45;&gt;SBBUsageModule -->
<g id="edge4" class="edge">
<title>SBBUsageComponent&#45;&gt;SBBUsageModule</title>
<path fill="none" stroke="#000000" d="M672.5544,-122.1061C672.5544,-122.1061 672.5544,-140.991 672.5544,-140.991"/>
<polygon fill="#000000" stroke="#000000" points="669.0544,-140.9909 672.5544,-150.991 676.0544,-140.991 669.0544,-140.9909"/>
</g>
<!-- TailUsageComponent -->
<g id="node5" class="node">
<title>TailUsageComponent</title>
<polygon fill="#ffffb3" stroke="#000000" points="628.3613,-122 489.6387,-122 489.6387,-86 628.3613,-86 628.3613,-122"/>
<text text-anchor="middle" x="559" y="-99.8" font-family="Times,serif" font-size="14.00" fill="#000000">TailUsageComponent</text>
</g>
<!-- TailUsageComponent&#45;&gt;SBBUsageModule -->
<g id="edge5" class="edge">
<title>TailUsageComponent&#45;&gt;SBBUsageModule</title>
<path fill="none" stroke="#000000" d="M602.9688,-122.1061C602.9688,-122.1061 602.9688,-140.991 602.9688,-140.991"/>
<polygon fill="#000000" stroke="#000000" points="599.4689,-140.9909 602.9688,-150.991 606.4689,-140.991 599.4689,-140.9909"/>
</g>
<!-- PlanUsageComponent  -->
<g id="node9" class="node">
<title>PlanUsageComponent </title>
<polygon fill="#fb8072" stroke="#000000" points="972.2009,-252 827.7991,-252 827.7991,-216 972.2009,-216 972.2009,-252"/>
<text text-anchor="middle" x="900" y="-229.8" font-family="Times,serif" font-size="14.00" fill="#000000">PlanUsageComponent </text>
</g>
<!-- SBBUsageModule&#45;&gt;PlanUsageComponent  -->
<g id="edge8" class="edge">
<title>SBBUsageModule&#45;&gt;PlanUsageComponent </title>
<path fill="none" stroke="#000000" stroke-dasharray="5,2" d="M698.5483,-180C772.5735,-180 888.125,-180 888.125,-180 888.125,-180 888.125,-205.7181 888.125,-205.7181"/>
<polygon fill="#000000" stroke="#000000" points="884.6251,-205.718 888.125,-215.7181 891.6251,-205.7181 884.6251,-205.718"/>
</g>
<!-- PlanAppUsageComponent  -->
<g id="node10" class="node">
<title>PlanAppUsageComponent </title>
<polygon fill="#fb8072" stroke="#000000" points="809.3073,-252 640.6927,-252 640.6927,-216 809.3073,-216 809.3073,-252"/>
<text text-anchor="middle" x="725" y="-229.8" font-family="Times,serif" font-size="14.00" fill="#000000">PlanAppUsageComponent </text>
</g>
<!-- SBBUsageModule&#45;&gt;PlanAppUsageComponent  -->
<g id="edge9" class="edge">
<title>SBBUsageModule&#45;&gt;PlanAppUsageComponent </title>
<path fill="none" stroke="#000000" stroke-dasharray="5,2" d="M669.5447,-187.1061C669.5447,-187.1061 669.5447,-205.991 669.5447,-205.991"/>
<polygon fill="#000000" stroke="#000000" points="666.0448,-205.9909 669.5447,-215.991 673.0448,-205.991 666.0448,-205.9909"/>
</g>
<!-- TailUsageComponent  -->
<g id="node11" class="node">
<title>TailUsageComponent </title>
<polygon fill="#fb8072" stroke="#000000" points="622.3617,-252 479.6383,-252 479.6383,-216 622.3617,-216 622.3617,-252"/>
<text text-anchor="middle" x="551" y="-229.8" font-family="Times,serif" font-size="14.00" fill="#000000">TailUsageComponent </text>
</g>
<!-- SBBUsageModule&#45;&gt;TailUsageComponent  -->
<g id="edge10" class="edge">
<title>SBBUsageModule&#45;&gt;TailUsageComponent </title>
<path fill="none" stroke="#000000" stroke-dasharray="5,2" d="M599.8438,-187.1061C599.8438,-187.1061 599.8438,-205.991 599.8438,-205.991"/>
<polygon fill="#000000" stroke="#000000" points="596.3439,-205.9909 599.8438,-215.991 603.3439,-205.991 596.3439,-205.9909"/>
</g>
<!-- SBBUsageComponent  -->
<g id="node12" class="node">
<title>SBBUsageComponent </title>
<polygon fill="#fb8072" stroke="#000000" points="462.2688,-252 315.7312,-252 315.7312,-216 462.2688,-216 462.2688,-252"/>
<text text-anchor="middle" x="389" y="-229.8" font-family="Times,serif" font-size="14.00" fill="#000000">SBBUsageComponent </text>
</g>
<!-- SBBUsageModule&#45;&gt;SBBUsageComponent  -->
<g id="edge11" class="edge">
<title>SBBUsageModule&#45;&gt;SBBUsageComponent </title>
<path fill="none" stroke="#000000" stroke-dasharray="5,2" d="M577.3704,-180C503.9964,-180 390.1556,-180 390.1556,-180 390.1556,-180 390.1556,-205.7181 390.1556,-205.7181"/>
<polygon fill="#000000" stroke="#000000" points="386.6557,-205.718 390.1556,-215.7181 393.6557,-205.7181 386.6557,-205.718"/>
</g>
<!-- CommonModule -->
<g id="node7" class="node">
<title>CommonModule</title>
<polygon fill="#8dd3c7" stroke="#000000" points="465.6681,-122 462.6681,-126 441.6681,-126 438.6681,-122 354.3319,-122 354.3319,-86 465.6681,-86 465.6681,-122"/>
<text text-anchor="middle" x="410" y="-99.8" font-family="Times,serif" font-size="14.00" fill="#000000">CommonModule</text>
</g>
<!-- CommonModule&#45;&gt;SBBUsageModule -->
<g id="edge6" class="edge">
<title>CommonModule&#45;&gt;SBBUsageModule</title>
<path fill="none" stroke="#000000" d="M426.1449,-122.0091C426.1449,-138.0494 426.1449,-159 426.1449,-159 426.1449,-159 567.2908,-159 567.2908,-159"/>
<polygon fill="#000000" stroke="#000000" points="567.2909,-162.5001 577.2908,-159 567.2908,-155.5001 567.2909,-162.5001"/>
</g>
<!-- FlexLayoutModule -->
<g id="node8" class="node">
<title>FlexLayoutModule</title>
<polygon fill="#8dd3c7" stroke="#000000" points="336.0954,-122 333.0954,-126 312.0954,-126 309.0954,-122 211.9046,-122 211.9046,-86 336.0954,-86 336.0954,-122"/>
<text text-anchor="middle" x="274" y="-99.8" font-family="Times,serif" font-size="14.00" fill="#000000">FlexLayoutModule</text>
</g>
<!-- FlexLayoutModule&#45;&gt;SBBUsageModule -->
<g id="edge7" class="edge">
<title>FlexLayoutModule&#45;&gt;SBBUsageModule</title>
<path fill="none" stroke="#000000" d="M325.9567,-122.2667C325.9567,-140.5552 325.9567,-166 325.9567,-166 325.9567,-166 567.4649,-166 567.4649,-166"/>
<polygon fill="#000000" stroke="#000000" points="567.465,-169.5001 577.4649,-166 567.4649,-162.5001 567.465,-169.5001"/>
</g>
<!-- SBBUsageService -->
<g id="node13" class="node">
<title>SBBUsageService</title>
<ellipse fill="#fdb462" stroke="#000000" cx="106" cy="-104" rx="82.2391" ry="18"/>
<text text-anchor="middle" x="106" y="-99.8" font-family="Times,serif" font-size="14.00" fill="#000000">SBBUsageService</text>
</g>
<!-- SBBUsageService&#45;&gt;SBBUsageModule -->
<g id="edge12" class="edge">
<title>SBBUsageService&#45;&gt;SBBUsageModule</title>
<path fill="none" stroke="#000000" d="M106,-122.1289C106,-142.5724 106,-173 106,-173 106,-173 567.4908,-173 567.4908,-173"/>
<polygon fill="#000000" stroke="#000000" points="567.4908,-176.5001 577.4908,-173 567.4908,-169.5001 567.4908,-176.5001"/>
</g>
</g>
</svg>
