<?xml version="1.0" encoding="UTF-8" standalone="no"?>
<!DOCTYPE svg PUBLIC "-//W3C//DTD SVG 1.1//EN"
 "http://www.w3.org/Graphics/SVG/1.1/DTD/svg11.dtd">
<!-- Generated by graphviz version 2.40.1 (20161225.0304)
 -->
<!-- Title: dependencies Pages: 1 -->
<svg width="2155pt" height="284pt"
 viewBox="0.00 0.00 2155.00 284.00" xmlns="http://www.w3.org/2000/svg" xmlns:xlink="http://www.w3.org/1999/xlink">
<g id="graph0" class="graph" transform="scale(1 1) rotate(0) translate(4 280)">
<title>dependencies</title>
<polygon fill="#ffffff" stroke="transparent" points="-4,4 -4,-280 2151,-280 2151,4 -4,4"/>
<text text-anchor="start" x="1052.5091" y="-42.4" font-family="sans-serif" font-weight="bold" font-size="14.00" fill="#000000">Legend</text>
<polygon fill="#ffffb3" stroke="transparent" points="839.5,-10 839.5,-30 859.5,-30 859.5,-10 839.5,-10"/>
<text text-anchor="start" x="863.129" y="-15.4" font-family="sans-serif" font-size="14.00" fill="#000000"> &#160;Declarations</text>
<polygon fill="#8dd3c7" stroke="transparent" points="952.5,-10 952.5,-30 972.5,-30 972.5,-10 952.5,-10"/>
<text text-anchor="start" x="976.2251" y="-15.4" font-family="sans-serif" font-size="14.00" fill="#000000"> &#160;Module</text>
<polygon fill="#80b1d3" stroke="transparent" points="1038.5,-10 1038.5,-30 1058.5,-30 1058.5,-10 1038.5,-10"/>
<text text-anchor="start" x="1062.2812" y="-15.4" font-family="sans-serif" font-size="14.00" fill="#000000"> &#160;Bootstrap</text>
<polygon fill="#fdb462" stroke="transparent" points="1135.5,-10 1135.5,-30 1155.5,-30 1155.5,-10 1135.5,-10"/>
<text text-anchor="start" x="1159.1732" y="-15.4" font-family="sans-serif" font-size="14.00" fill="#000000"> &#160;Providers</text>
<polygon fill="#fb8072" stroke="transparent" points="1231.5,-10 1231.5,-30 1251.5,-30 1251.5,-10 1231.5,-10"/>
<text text-anchor="start" x="1255.2258" y="-15.4" font-family="sans-serif" font-size="14.00" fill="#000000"> &#160;Exports</text>
<g id="clust1" class="cluster">
<title>cluster_AppModule</title>
<polygon fill="none" stroke="#000000" stroke-dasharray="1,5" points="8,-70 8,-268 2139,-268 2139,-70 8,-70"/>
</g>
<g id="clust2" class="cluster">
<title>cluster_AppModule_declarations</title>
<polygon fill="none" stroke="#000000" points="2009,-78 2009,-130 2131,-130 2131,-78 2009,-78"/>
</g>
<g id="clust4" class="cluster">
<title>cluster_AppModule_imports</title>
<polygon fill="none" stroke="#000000" points="16,-78 16,-130 2001,-130 2001,-78 16,-78"/>
</g>
<g id="clust6" class="cluster">
<title>cluster_AppModule_bootstrap</title>
<polygon fill="none" stroke="#000000" points="1051,-208 1051,-260 1175,-260 1175,-208 1051,-208"/>
</g>
<!-- AppComponent -->
<g id="node1" class="node">
<title>AppComponent</title>
<polygon fill="#ffffb3" stroke="#000000" points="2122.9399,-122 2017.0601,-122 2017.0601,-86 2122.9399,-86 2122.9399,-122"/>
<text text-anchor="middle" x="2070" y="-99.8" font-family="Times,serif" font-size="14.00" fill="#000000">AppComponent</text>
</g>
<!-- AppModule -->
<g id="node2" class="node">
<title>AppModule</title>
<polygon fill="#8dd3c7" stroke="#000000" points="1154.6571,-187 1151.6571,-191 1130.6571,-191 1127.6571,-187 1071.3429,-187 1071.3429,-151 1154.6571,-151 1154.6571,-187"/>
<text text-anchor="middle" x="1113" y="-164.8" font-family="Times,serif" font-size="14.00" fill="#000000">AppModule</text>
</g>
<!-- AppComponent&#45;&gt;AppModule -->
<g id="edge1" class="edge">
<title>AppComponent&#45;&gt;AppModule</title>
<path fill="none" stroke="#000000" d="M2070,-122.0908C2070,-145.1328 2070,-182 2070,-182 2070,-182 1164.7365,-182 1164.7365,-182"/>
<polygon fill="#000000" stroke="#000000" points="1164.7365,-178.5001 1154.7365,-182 1164.7364,-185.5001 1164.7365,-178.5001"/>
</g>
<!-- AppComponent  -->
<g id="node15" class="node">
<title>AppComponent </title>
<polygon fill="#80b1d3" stroke="#000000" points="1167.439,-252 1058.561,-252 1058.561,-216 1167.439,-216 1167.439,-252"/>
<text text-anchor="middle" x="1113" y="-229.8" font-family="Times,serif" font-size="14.00" fill="#000000">AppComponent </text>
</g>
<!-- AppModule&#45;&gt;AppComponent  -->
<g id="edge14" class="edge">
<title>AppModule&#45;&gt;AppComponent </title>
<path fill="none" stroke="#000000" stroke-dasharray="1,5" d="M1113,-187.1061C1113,-187.1061 1113,-205.991 1113,-205.991"/>
<polygon fill="#000000" stroke="#000000" points="1109.5001,-205.9909 1113,-215.991 1116.5001,-205.991 1109.5001,-205.9909"/>
</g>
<!-- AppRoutingModule -->
<g id="node3" class="node">
<title>AppRoutingModule</title>
<polygon fill="#8dd3c7" stroke="#000000" points="1993.2744,-122 1990.2744,-126 1969.2744,-126 1966.2744,-122 1864.7256,-122 1864.7256,-86 1993.2744,-86 1993.2744,-122"/>
<text text-anchor="middle" x="1929" y="-99.8" font-family="Times,serif" font-size="14.00" fill="#000000">AppRoutingModule</text>
</g>
<!-- AppRoutingModule&#45;&gt;AppModule -->
<g id="edge2" class="edge">
<title>AppRoutingModule&#45;&gt;AppModule</title>
<path fill="none" stroke="#000000" d="M1929,-122.0449C1929,-143.6623 1929,-177 1929,-177 1929,-177 1164.87,-177 1164.87,-177"/>
<polygon fill="#000000" stroke="#000000" points="1164.87,-173.5001 1154.87,-177 1164.8699,-180.5001 1164.87,-173.5001"/>
</g>
<!-- BrowserModule -->
<g id="node4" class="node">
<title>BrowserModule</title>
<polygon fill="#8dd3c7" stroke="#000000" points="1846.4734,-122 1843.4734,-126 1822.4734,-126 1819.4734,-122 1739.5266,-122 1739.5266,-86 1846.4734,-86 1846.4734,-122"/>
<text text-anchor="middle" x="1793" y="-99.8" font-family="Times,serif" font-size="14.00" fill="#000000">BrowserModule</text>
</g>
<!-- BrowserModule&#45;&gt;AppModule -->
<g id="edge3" class="edge">
<title>BrowserModule&#45;&gt;AppModule</title>
<path fill="none" stroke="#000000" d="M1793,-122.2228C1793,-142.3652 1793,-172 1793,-172 1793,-172 1164.7683,-172 1164.7683,-172"/>
<polygon fill="#000000" stroke="#000000" points="1164.7683,-168.5001 1154.7683,-172 1164.7683,-175.5001 1164.7683,-168.5001"/>
</g>
<!-- BrowserAnimationsModule -->
<g id="node5" class="node">
<title>BrowserAnimationsModule</title>
<polygon fill="#8dd3c7" stroke="#000000" points="1721.3019,-122 1718.3019,-126 1697.3019,-126 1694.3019,-122 1548.6981,-122 1548.6981,-86 1721.3019,-86 1721.3019,-122"/>
<text text-anchor="middle" x="1635" y="-99.8" font-family="Times,serif" font-size="14.00" fill="#000000">BrowserAnimationsModule</text>
</g>
<!-- BrowserAnimationsModule&#45;&gt;AppModule -->
<g id="edge4" class="edge">
<title>BrowserAnimationsModule&#45;&gt;AppModule</title>
<path fill="none" stroke="#000000" d="M1635,-122.2222C1635,-140.8285 1635,-167 1635,-167 1635,-167 1164.8351,-167 1164.8351,-167"/>
<polygon fill="#000000" stroke="#000000" points="1164.8351,-163.5001 1154.8351,-167 1164.835,-170.5001 1164.8351,-163.5001"/>
</g>
<!-- FlexLayoutModule -->
<g id="node6" class="node">
<title>FlexLayoutModule</title>
<polygon fill="#8dd3c7" stroke="#000000" points="1531.0954,-122 1528.0954,-126 1507.0954,-126 1504.0954,-122 1406.9046,-122 1406.9046,-86 1531.0954,-86 1531.0954,-122"/>
<text text-anchor="middle" x="1469" y="-99.8" font-family="Times,serif" font-size="14.00" fill="#000000">FlexLayoutModule</text>
</g>
<!-- FlexLayoutModule&#45;&gt;AppModule -->
<g id="edge5" class="edge">
<title>FlexLayoutModule&#45;&gt;AppModule</title>
<path fill="none" stroke="#000000" d="M1469,-122.0336C1469,-139.0597 1469,-162 1469,-162 1469,-162 1164.8846,-162 1164.8846,-162"/>
<polygon fill="#000000" stroke="#000000" points="1164.8846,-158.5001 1154.8846,-162 1164.8845,-165.5001 1164.8846,-158.5001"/>
</g>
<!-- AngularFireDatabaseModule -->
<g id="node7" class="node">
<title>AngularFireDatabaseModule</title>
<polygon fill="#8dd3c7" stroke="#000000" points="1388.771,-122 1385.771,-126 1364.771,-126 1361.771,-122 1209.229,-122 1209.229,-86 1388.771,-86 1388.771,-122"/>
<text text-anchor="middle" x="1299" y="-99.8" font-family="Times,serif" font-size="14.00" fill="#000000">AngularFireDatabaseModule</text>
</g>
<!-- AngularFireDatabaseModule&#45;&gt;AppModule -->
<g id="edge6" class="edge">
<title>AngularFireDatabaseModule&#45;&gt;AppModule</title>
<path fill="none" stroke="#000000" d="M1299,-122.2396C1299,-137.5706 1299,-157 1299,-157 1299,-157 1164.742,-157 1164.742,-157"/>
<polygon fill="#000000" stroke="#000000" points="1164.7421,-153.5001 1154.742,-157 1164.742,-160.5001 1164.7421,-153.5001"/>
</g>
<!-- AngularFireAuthModule -->
<g id="node8" class="node">
<title>AngularFireAuthModule</title>
<polygon fill="#8dd3c7" stroke="#000000" points="1190.9678,-122 1187.9678,-126 1166.9678,-126 1163.9678,-122 1035.0322,-122 1035.0322,-86 1190.9678,-86 1190.9678,-122"/>
<text text-anchor="middle" x="1113" y="-99.8" font-family="Times,serif" font-size="14.00" fill="#000000">AngularFireAuthModule</text>
</g>
<!-- AngularFireAuthModule&#45;&gt;AppModule -->
<g id="edge7" class="edge">
<title>AngularFireAuthModule&#45;&gt;AppModule</title>
<path fill="none" stroke="#000000" d="M1113,-122.1061C1113,-122.1061 1113,-140.991 1113,-140.991"/>
<polygon fill="#000000" stroke="#000000" points="1109.5001,-140.9909 1113,-150.991 1116.5001,-140.991 1109.5001,-140.9909"/>
</g>
<!-- CoreModule.forRoot() -->
<g id="node9" class="node">
<title>CoreModule.forRoot()</title>
<polygon fill="#8dd3c7" stroke="#000000" points="1016.6313,-122 1013.6313,-126 992.6313,-126 989.6313,-122 873.3687,-122 873.3687,-86 1016.6313,-86 1016.6313,-122"/>
<text text-anchor="middle" x="945" y="-99.8" font-family="Times,serif" font-size="14.00" fill="#000000">CoreModule.forRoot()</text>
</g>
<!-- CoreModule.forRoot()&#45;&gt;AppModule -->
<g id="edge8" class="edge">
<title>CoreModule.forRoot()&#45;&gt;AppModule</title>
<path fill="none" stroke="#000000" d="M945,-122.2396C945,-137.5706 945,-157 945,-157 945,-157 1061.0399,-157 1061.0399,-157"/>
<polygon fill="#000000" stroke="#000000" points="1061.0399,-160.5001 1071.0399,-157 1061.0398,-153.5001 1061.0399,-160.5001"/>
</g>
<!-- StoreModule.forRoot(args) -->
<g id="node10" class="node">
<title>StoreModule.forRoot(args)</title>
<polygon fill="#8dd3c7" stroke="#000000" points="855.2877,-122 852.2877,-126 831.2877,-126 828.2877,-122 686.7123,-122 686.7123,-86 855.2877,-86 855.2877,-122"/>
<text text-anchor="middle" x="771" y="-99.8" font-family="Times,serif" font-size="14.00" fill="#000000">StoreModule.forRoot(args)</text>
</g>
<!-- StoreModule.forRoot(args)&#45;&gt;AppModule -->
<g id="edge9" class="edge">
<title>StoreModule.forRoot(args)&#45;&gt;AppModule</title>
<path fill="none" stroke="#000000" d="M771,-122.0336C771,-139.0597 771,-162 771,-162 771,-162 1061.0641,-162 1061.0641,-162"/>
<polygon fill="#000000" stroke="#000000" points="1061.0641,-165.5001 1071.0641,-162 1061.0641,-158.5001 1061.0641,-165.5001"/>
</g>
<!-- EffectsModule.forRoot(args) -->
<g id="node11" class="node">
<title>EffectsModule.forRoot(args)</title>
<polygon fill="#8dd3c7" stroke="#000000" points="668.3774,-122 665.3774,-126 644.3774,-126 641.3774,-122 489.6226,-122 489.6226,-86 668.3774,-86 668.3774,-122"/>
<text text-anchor="middle" x="579" y="-99.8" font-family="Times,serif" font-size="14.00" fill="#000000">EffectsModule.forRoot(args)</text>
</g>
<!-- EffectsModule.forRoot(args)&#45;&gt;AppModule -->
<g id="edge10" class="edge">
<title>EffectsModule.forRoot(args)&#45;&gt;AppModule</title>
<path fill="none" stroke="#000000" d="M579,-122.2222C579,-140.8285 579,-167 579,-167 579,-167 1061.0979,-167 1061.0979,-167"/>
<polygon fill="#000000" stroke="#000000" points="1061.098,-170.5001 1071.0979,-167 1061.0979,-163.5001 1061.098,-170.5001"/>
</g>
<!-- { &#160;} -->
<g id="node12" class="node">
<title>{ &#160;}</title>
<polygon fill="#8dd3c7" stroke="#000000" points="472,-122 469,-126 448,-126 445,-122 418,-122 418,-86 472,-86 472,-122"/>
<text text-anchor="middle" x="445" y="-99.8" font-family="Times,serif" font-size="14.00" fill="#000000">{ &#160;}</text>
</g>
<!-- { &#160;}&#45;&gt;AppModule -->
<g id="edge11" class="edge">
<title>{ &#160;}&#45;&gt;AppModule</title>
<path fill="none" stroke="#000000" d="M445,-122.2228C445,-142.3652 445,-172 445,-172 445,-172 1061.2136,-172 1061.2136,-172"/>
<polygon fill="#000000" stroke="#000000" points="1061.2136,-175.5001 1071.2136,-172 1061.2136,-168.5001 1061.2136,-175.5001"/>
</g>
<!-- DashboardModule -->
<g id="node13" class="node">
<title>DashboardModule</title>
<polygon fill="#8dd3c7" stroke="#000000" points="400.191,-122 397.191,-126 376.191,-126 373.191,-122 279.809,-122 279.809,-86 400.191,-86 400.191,-122"/>
<text text-anchor="middle" x="340" y="-99.8" font-family="Times,serif" font-size="14.00" fill="#000000">DashboardModule</text>
</g>
<!-- DashboardModule&#45;&gt;AppModule -->
<g id="edge12" class="edge">
<title>DashboardModule&#45;&gt;AppModule</title>
<path fill="none" stroke="#000000" d="M340,-122.0449C340,-143.6623 340,-177 340,-177 340,-177 1061.1661,-177 1061.1661,-177"/>
<polygon fill="#000000" stroke="#000000" points="1061.1661,-180.5001 1071.1661,-177 1061.166,-173.5001 1061.1661,-180.5001"/>
</g>
<!-- AngularFireModule.initializeApp(args) -->
<g id="node14" class="node">
<title>AngularFireModule.initializeApp(args)</title>
<polygon fill="#8dd3c7" stroke="#000000" points="261.7057,-122 258.7057,-126 237.7057,-126 234.7057,-122 24.2943,-122 24.2943,-86 261.7057,-86 261.7057,-122"/>
<text text-anchor="middle" x="143" y="-99.8" font-family="Times,serif" font-size="14.00" fill="#000000">AngularFireModule.initializeApp(args)</text>
</g>
<!-- AngularFireModule.initializeApp(args)&#45;&gt;AppModule -->
<g id="edge13" class="edge">
<title>AngularFireModule.initializeApp(args)&#45;&gt;AppModule</title>
<path fill="none" stroke="#000000" d="M143,-122.0908C143,-145.1328 143,-182 143,-182 143,-182 1061.3203,-182 1061.3203,-182"/>
<polygon fill="#000000" stroke="#000000" points="1061.3203,-185.5001 1071.3203,-182 1061.3203,-178.5001 1061.3203,-185.5001"/>
</g>
</g>
</svg>
